<?xml version="1.0" encoding="UTF-8" standalone="no"?>
<!-- Created with Inkscape (http://www.inkscape.org/) -->

<svg
   width="744.09448"
   height="1052.3622"
   id="svg2"
   sodipodi:version="0.32"
   inkscape:version="1.1.1 (3bf5ae0, 2021-09-20)"
   sodipodi:docname="org.synfig.SynfigStudio.svg"
   inkscape:output_extension="org.inkscape.output.svg.inkscape"
   version="1.0"
   style="display:inline;enable-background:new"
   enable-background="new"
   xmlns:inkscape="http://www.inkscape.org/namespaces/inkscape"
   xmlns:sodipodi="http://sodipodi.sourceforge.net/DTD/sodipodi-0.dtd"
   xmlns:xlink="http://www.w3.org/1999/xlink"
   xmlns="http://www.w3.org/2000/svg"
   xmlns:svg="http://www.w3.org/2000/svg"
   xmlns:rdf="http://www.w3.org/1999/02/22-rdf-syntax-ns#"
   xmlns:cc="http://creativecommons.org/ns#"
   xmlns:dc="http://purl.org/dc/elements/1.1/">
  <defs
     id="defs4">
    <linearGradient
       id="linearGradient3854">
      <stop
         id="stop3856"
         offset="0"
         style="stop-color:#e4e6e8;stop-opacity:1;" />
      <stop
         style="stop-color:#4f7b8c;stop-opacity:0;"
         offset="1"
         id="stop3858" />
    </linearGradient>
    <linearGradient
       id="linearGradient3821">
      <stop
         style="stop-color:#000000;stop-opacity:0;"
         offset="0"
         id="stop3823" />
      <stop
         id="stop3825"
         offset="0.19851486"
         style="stop-color:#000000;stop-opacity:0;" />
      <stop
         style="stop-color:#000000;stop-opacity:1;"
         offset="1"
         id="stop3827" />
    </linearGradient>
    <linearGradient
       id="linearGradient2427">
      <stop
         style="stop-color:#a6c0ce;stop-opacity:1;"
         offset="0"
         id="stop2429" />
      <stop
         id="stop2433"
         offset="1"
         style="stop-color:#ffffff;stop-opacity:0;" />
    </linearGradient>
    <linearGradient
       id="linearGradient3630">
      <stop
         id="stop3638"
         offset="0"
         style="stop-color:#469ff9;stop-opacity:1" />
      <stop
         style="stop-color:#c2cfdc;stop-opacity:0.49803922;"
         offset="0.67284548"
         id="stop3642" />
      <stop
         style="stop-color:#47a0fa;stop-opacity:0;"
         offset="1"
         id="stop3634" />
    </linearGradient>
    <radialGradient
       inkscape:collect="always"
       xlink:href="#linearGradient2427"
       id="radialGradient3208"
       cx="1760.7036"
       cy="513.24353"
       fx="1760.7036"
       fy="513.24353"
       r="336.14325"
       gradientTransform="matrix(0.8517704,1.0562398e-7,0,0.9613861,-1122.4773,348.03689)"
       gradientUnits="userSpaceOnUse" />
    <radialGradient
       inkscape:collect="always"
       xlink:href="#linearGradient3821"
       id="radialGradient3819"
       gradientUnits="userSpaceOnUse"
       gradientTransform="matrix(2.0136983,5.331676e-6,-2.11093e-8,2.2175999,-382.40542,-635.95221)"
       cx="377.23792"
       cy="525.66876"
       fx="377.23792"
       fy="525.66876"
       r="335.63123" />
    <linearGradient
       inkscape:collect="always"
       xlink:href="#linearGradient3854"
       id="linearGradient3860"
       x1="377.23792"
       y1="139.97688"
       x2="377.23792"
       y2="331.37125"
       gradientUnits="userSpaceOnUse" />
    <filter
       inkscape:collect="always"
       id="filter4019"
       x="-0.056123363"
       y="-0.040976868"
       width="1.1122467"
       height="1.0819537">
      <feGaussianBlur
         inkscape:collect="always"
         stdDeviation="16.087627"
         id="feGaussianBlur4021" />
    </filter>
  </defs>
  <sodipodi:namedview
     id="base"
     pagecolor="#ffffff"
     bordercolor="#666666"
     borderopacity="1.0"
     gridtolerance="10000"
     guidetolerance="10"
     objecttolerance="20"
     inkscape:pageopacity="0.0"
     inkscape:pageshadow="2"
     inkscape:zoom="0.74974188"
     inkscape:cx="322.11086"
     inkscape:cy="570.19624"
     inkscape:document-units="px"
     inkscape:current-layer="layer6"
     showgrid="false"
     inkscape:object-nodes="false"
     showguides="true"
     inkscape:guide-bbox="true"
     inkscape:window-width="1570"
     inkscape:window-height="993"
     inkscape:window-x="346"
     inkscape:window-y="22"
     inkscape:pagecheckerboard="0"
     inkscape:window-maximized="0">
    <sodipodi:guide
       orientation="1,0"
       position="377.23791,504.73278"
       id="guide3625" />
    <sodipodi:guide
       orientation="0,1"
       position="295.90875,410.76806"
       id="guide3627" />
  </sodipodi:namedview>
  <metadata
     id="metadata7">
    <rdf:RDF>
      <cc:Work
         rdf:about="">
        <dc:format>image/svg+xml</dc:format>
        <dc:type
           rdf:resource="http://purl.org/dc/dcmitype/StillImage" />
        <cc:license
           rdf:resource="http://www.gnu.org/licenses/gpl.html" />
        <dc:creator>
          <cc:Agent>
            <dc:title>Daniel Hornung (rubikcube)</dc:title>
          </cc:Agent>
        </dc:creator>
      </cc:Work>
    </rdf:RDF>
  </metadata>
  <g
     inkscape:groupmode="layer"
     id="layer7"
     inkscape:label="shadow"
     sodipodi:insensitive="true">
    <path
       sodipodi:type="inkscape:offset"
       inkscape:radius="-10.176493"
       inkscape:original="M 390.34375 52.96875 C 376.603 58.16481 369.86982 72.124321 358.9375 80.9375 C 257.06058 186.98534 172.29315 311.69533 120.59375 450.0625 C 81.694156 552.63146 57.630878 660.46359 44.28125 769.3125 C 42.703194 793.49656 33.072327 818.26904 40 842.3125 C 45.705537 850.91855 57.566466 847.38652 66.25 848.34375 C 111.15328 852.01429 156.60082 858.40419 198.40625 875.90625 C 267.90136 905.35102 325.1424 956.62236 376.71875 1010.625 C 384.65367 1018.7431 399.8862 1018.8512 406.71875 1009.3125 C 451.69437 966.77355 495.55508 921.12384 551.15625 892.34375 C 588.46822 872.24856 629.4028 858.73602 671.4375 853.1875 C 694.08508 846.80656 719.86349 856.33138 740.65625 843 C 748.73118 836.38246 745.85039 824.49641 744.25 815.65625 C 728.31221 672.47708 700.22928 528.71617 639.90625 397.15625 C 581.61913 268.85105 498.05535 151.80516 396.25 54.625 C 394.58398 53.432958 392.39272 52.672756 390.34375 52.96875 z "
       style="opacity:0.58482139;fill:#040608;display:inline;filter:url(#filter4019);enable-background:new"
       id="path3977"
       d="M 391.15625,63.90625 C 383.70347,68.391112 377.58774,78.559504 366.28125,88 C 265.21191,193.2072 181.24959,316.79625 130.125,453.625 C 130.11461,453.63544 130.10419,453.64586 130.09375,453.65625 C 91.554406,555.27532 67.677992,662.29241 54.40625,770.4375 C 54.401054,770.47984 54.380193,770.52016 54.375,770.5625 C 52.619938,795.87802 44.788324,818.26764 49.40625,837.53125 C 49.92238,837.77503 50.747803,837.90405 52.6875,838.03125 C 56.063954,838.25267 61.176651,837.53547 67.375,838.21875 C 112.6784,841.922 158.92875,848.35534 202.34375,866.53125 C 202.35417,866.53123 202.36458,866.53123 202.375,866.53125 C 273.92912,896.84841 332.11073,949.19803 384.0625,1003.5938 C 387.47842,1007.0885 395.7957,1007.0631 398.4375,1003.375 C 398.81661,1002.8455 399.24566,1002.3537 399.71875,1001.9062 C 444.45343,959.59518 488.90647,913.10769 546.46875,883.3125 C 584.83968,862.64698 626.78371,848.81061 670.09375,843.09375 L 670.09375,843.125 C 683.15019,839.75628 695.67598,840.60785 706.65625,840.53125 C 717.71567,840.4541 726.75146,839.4617 734.46875,834.78125 C 735.45965,833.84886 735.85339,832.87715 735.90625,829.96875 C 735.96485,826.74441 735.09844,822.15535 734.25,817.46875 C 734.20048,817.24108 734.15878,817.01178 734.125,816.78125 C 718.24976,674.16401 690.30735,531.50075 630.65625,401.40625 C 630.65623,401.39583 630.65623,401.38542 630.65625,401.375 C 573.29495,275.10776 491.13336,159.81783 391.15625,63.90625 z" />
  </g>
  <g
     inkscape:label="Layer 1"
     inkscape:groupmode="layer"
     id="layer1"
     style="display:inline"
     sodipodi:insensitive="true">
    <g
       id="g2829"
       style="opacity:1">
      <path
         style="fill:#ff3a00;fill-opacity:1"
         d="m 378.1875,50.78125 c -2.96236,-0.09066 -5.82424,1.079077 -7.875,3.21875 -29.59003,30.877495 -59.66374,65.52306 -86.84375,98.5 -0.0316,0.0414 -0.0628,0.0831 -0.0937,0.125 C 216.39692,236.15433 165.48764,321.98049 128.5938,413.875 94.225952,499.47777 74.132038,573.53187 55.8438,681.40625 51.838929,705.02896 47.791912,733.65373 45,756.6875 c -1.395956,11.51688 -2.479806,21.62104 -3.09375,29.09375 -0.306972,3.73635 -0.485823,6.80156 -0.53125,9.28125 -0.02271,1.23984 -0.0263,2.27355 0.09375,3.5625 0.06003,0.64448 0.116328,1.33217 0.4375,2.5 0.321172,1.16783 0.05906,3.53835 4.75,6.4375 2.53132,1.5645 2.872036,1.25545 3.5,1.40625 0.627964,0.1508 1.114391,0.26043 1.625,0.34375 1.021219,0.16665 2.105586,0.27412 3.34375,0.40625 2.476327,0.26426 5.542631,0.51019 8.78125,0.6875 25.680126,1.40591 63.54914,7.93128 88.65625,15.28125 16.95014,4.96204 28.10958,9.06713 44.65625,16.40625 3.82288,1.6956 7.32851,3.24619 9.9375,4.375 1.3045,0.5644 2.37544,1.00367 3.1875,1.34375 0.38203,0.15999 0.72066,0.28279 1.03125,0.40625 0.0195,0.008 0.043,0.0236 0.0625,0.0312 0.005,0.002 0.0258,-0.003 0.0312,0 0.011,0.004 0.0203,0.0269 0.0312,0.0312 0.11631,0.0604 0.23661,0.11198 0.4375,0.21875 -0.0119,-0.0275 -0.0543,-0.0784 -0.0937,-0.0937 0.0588,0.0218 0.0827,0.0363 0.15625,0.0625 0.13196,0.047 0.27515,0.12393 0.59375,0.21875 0.12568,0.0374 0.22161,0.10822 0.375,0.1875 -0.0737,-0.0173 -0.35088,-0.0129 -0.40625,-0.0312 0.73325,0.39462 1.60371,0.88375 2.78125,1.53125 2.80093,1.54016 6.64897,3.67379 10.84375,6.03125 40.52196,22.77336 70.82614,46.25776 119.21875,92.625 6.37566,6.1088 12.31679,11.65041 16.8125,15.75 2.24786,2.04979 4.11468,3.73663 5.59375,5 0.73953,0.63168 1.36465,1.14641 2.03125,1.65625 0.3333,0.25492 0.65593,0.51682 1.21875,0.875 0.28141,0.17909 0.62679,0.38732 1.25,0.6875 0.62321,0.30018 1.24332,0.89056 4.125,1.03125 3.45229,0.16841 4.16872,-0.59022 4.875,-0.90625 0.70628,-0.31603 1.069,-0.53075 1.375,-0.71875 0.612,-0.376 0.95595,-0.63916 1.3125,-0.90625 0.7131,-0.53419 1.35659,-1.07749 2.15625,-1.75 1.59932,-1.34501 3.6419,-3.16839 6.09375,-5.375 4.9037,-4.41321 11.39113,-10.40884 18.375,-17.03125 40.03124,-37.95938 59.4088,-54.00555 87.28125,-72.5 60.86863,-40.3887 115.10891,-58.3158 198.375,-65.34375 l 6.75,-0.5625 c 5.42647,-0.45316 9.59853,-4.99215 9.59375,-10.4375 v -3.96875 C 712.62502,786.25729 710.65608,769.16852 708,748 705.34392,726.83148 701.94618,702.73759 698.875,684.4375 680.6084,575.5932 659.84081,498.93313 625.03125,412.25 593.67267,334.16054 548.77858,255.27854 495.125,183.875 c -0.12049,-0.1598 -0.24554,-0.31612 -0.375,-0.46875 C 458.63494,140.6552 423.70101,95.784759 385.59375,54.1875 c -1.90683,-2.089856 -4.57856,-3.318629 -7.40625,-3.40625 z"
         id="path3621" />
    </g>
  </g>
  <g
     inkscape:groupmode="layer"
     id="layer4"
     inkscape:label="light"
     style="display:none;opacity:0.700893"
     sodipodi:insensitive="true">
    <path
       sodipodi:nodetypes="cszsccc"
       id="path2415"
       d="M 42.001947,807.89203 C 61.382244,679.31376 115.78309,424.1632 200.81173,273.69532 251.26093,184.4197 332.87192,141.4927 377.23791,141.4927 c 43.06907,0 138.86641,59.21847 181.76909,142.85311 77.65686,151.38456 112.1055,344.94641 155.28145,526.34478 C 507.95007,821.53594 504.6193,891.72269 377.23791,973.02113 304.95556,922.91817 214.67646,822.20717 42.001947,807.89203 Z"
       style="display:inline;overflow:visible;visibility:visible;opacity:1;fill:url(#radialGradient3208);fill-opacity:1;fill-rule:evenodd;stroke:none;stroke-width:2.5;stroke-linecap:butt;stroke-linejoin:miter;stroke-miterlimit:4;stroke-dasharray:none;stroke-dashoffset:0;stroke-opacity:1;marker:none;marker-start:none;marker-mid:none;marker-end:none" />
  </g>
  <g
     inkscape:groupmode="layer"
     id="layer5"
     inkscape:label="multiply"
     style="display:inline"
     sodipodi:insensitive="true">
    <path
       style="display:inline;opacity:1;fill:url(#radialGradient3819);fill-opacity:1;enable-background:new"
       d="m 377.23791,49.968329 c -16.16689,5.66019 -23.42632,22.93617 -35.99129,33.42733 C 258.97773,173.16121 187.3679,273.88754 138.96706,386.04199 92.12883,491.98789 64.86936,605.49804 48.82688,719.92297 c -3.4497,25.4676 -7.18762,51.0071 -8.62066,76.6557 3.07735,17.2491 23.87483,12.0584 36.21337,14.1432 67.91553,6.2362 134.45722,29.7834 189.44355,70.4695 36.13024,25.9498 68.59989,56.6893 100.15541,87.8394 14.59618,10.4447 26.41704,-6.2663 35.811,-15.3404 44.01333,-42.125 90.465,-83.3159 146.37982,-108.9463 47.76452,-23.2468 100.73851,-32.7934 153.33265,-36.6084 16.01415,-4.0116 8.97998,-24.2255 8.22159,-35.9056 C 693.50611,621.33867 658.59469,470.56066 589.05822,334.80497 555.48623,268.91345 515.18219,206.27077 466.92313,150.13913 439.39513,117.06631 412.54806,83.369619 383.08012,51.973019 l -2.76998,-1.44283 z"
       id="path3213" />
  </g>
  <g
     inkscape:groupmode="layer"
     id="layer6"
     inkscape:label="light2"
     style="display:inline">
    <path
       style="display:inline;overflow:visible;visibility:visible;opacity:0.08808532;fill:url(#linearGradient3860);fill-opacity:1;fill-rule:evenodd;stroke:none;stroke-width:2.5;stroke-linecap:butt;stroke-linejoin:miter;stroke-miterlimit:4;stroke-dasharray:none;stroke-dashoffset:0;stroke-opacity:1;marker:none;marker-start:none;marker-mid:none;marker-end:none;enable-background:new"
       d="M 44.997827,817.20366 C 77.816727,575.404 141.97182,433.93311 208.14904,312.7767 c 58.982,-107.9835 125.04164,-172.55131 169.40763,-172.55131 43.06907,0 120.40398,82.54206 178.88839,178.87373 94.52885,155.7017 121.4569,253.82429 156.4988,492.62784 z"
       id="path2403"
       sodipodi:nodetypes="cszscc" />
  </g>
  <g
     inkscape:groupmode="layer"
     id="layer3"
     inkscape:label="black"
     style="display:inline"
     sodipodi:insensitive="true">
    <path
       style="opacity:1;fill:#040608;display:inline"
       d="M 354.17823,967.2099 C 318.79601,932.51308 296.72295,912.94036 272.47167,894.75871 C 226.63,860.39032 176.96633,837.82949 124.17823,827.39312 C 103.68028,823.34061 72.40056,819.4785 51.09117,818.36906 C 41.08212,817.84795 32.69521,817.2239 32.45359,816.98229 C 31.20575,815.73444 43.7195,720.73078 50.2161,682.13035 C 80.6638,501.22129 133.78962,360.66359 221.53106,228.87359 C 261.27894,169.17122 316.72781,101.766 367.13478,51.873587 L 377.23791,41.873587 L 397.51678,62.373587 C 501.89476,167.88978 582.30219,289.45409 634.97853,421.38112 C 671.35757,512.49184 696.64377,613.33267 713.58789,734.87359 C 718.91475,773.08345 723.34119,810.82975 722.99198,815.06674 L 722.67823,818.87359 L 715.67823,819.10686 C 660.69712,820.93906 624.66399,826.72849 586.16338,839.91597 C 529.10495,859.45999 482.38039,890.42618 420.17823,949.9208 C 398.66304,970.49948 378.11725,989.38657 377.31476,989.32382 C 376.96467,989.29644 366.55323,979.34518 354.17823,967.2099 z M 403.48164,941.4811 C 443.67216,903.37071 463.80475,886.65082 492.15199,867.84133 C 554.25148,826.63593 611.02221,807.90828 695.42823,800.78412 L 702.17823,800.2144 L 702.17823,796.27117 C 702.17823,784.00613 694.66051,724.00418 688.59696,687.87359 C 670.41144,579.51244 649.90429,503.91891 615.35086,417.87359 C 584.3718,340.72919 539.90402,262.55762 486.79109,191.87359 C 450.49512,148.90838 415.62773,104.15745 377.90319,62.977957 C 348.56615,93.591437 318.62751,128.04734 291.5717,160.87359 C 225.16336,243.69232 174.85449,328.62268 138.36022,419.52194 C 104.24187,504.50328 84.39776,577.46324 66.18819,684.87359 C 58.25749,731.65334 50.08398,799.07928 52.18643,800.37866 C 52.806,800.76157 58.34511,801.35035 64.49557,801.68707 C 91.33288,803.15631 129.34586,809.70519 155.53017,817.37051 C 172.79438,822.42451 184.65614,826.78008 201.49103,834.24704 C 209.08807,837.61664 215.45952,840.37359 215.6498,840.37359 C 215.84009,840.37359 222.8978,844.25253 231.33361,848.99345 C 272.60574,872.1884 303.97677,896.54578 352.67823,943.20894 C 365.32823,955.3295 376.26476,965.27496 376.98164,965.30996 C 377.69851,965.34495 389.62351,954.62197 403.48164,941.4811 z M 311.14514,894.17144 C 313.56965,887.26751 344.96351,841.88929 361.32053,822.22484 C 366.19226,816.36802 370.17823,810.88992 370.17823,810.05128 C 370.17823,808.10124 337.2677,779.25051 320.01604,764.92846 C 312.68883,758.84553 295.74755,748.19859 296.22875,748.19859 C 298.87768,748.19859 348.85783,781.55103 365.67823,795.22759 C 371.17823,799.69961 376.35323,803.35543 377.17823,803.35163 C 378.00323,803.34784 384.52823,798.59885 391.67823,792.79832 C 404.7011,782.23334 453.18817,745.35384 455.36478,745.37468 C 456.00193,745.38078 454.94823,746.61803 453.02323,748.12413 C 434.28571,762.78414 384.17823,807.55122 384.17823,810.07747 C 384.17823,810.93052 387.2546,815.28362 391.0146,819.75103 C 407.09139,838.85252 435.97124,870.64271 443.38773,884.21359 C 447.47334,891.68953 445.91564,890.15267 435.27925,876.21359 C 419.98017,856.16403 380.34268,817.37359 377.04418,817.37359 C 373.96141,817.37359 336.04837,863.37682 319.87791,884.38359 C 311.50004,895.26713 310.28024,896.63431 311.14514,894.17144 z M 523.22899,820.0392 C 503.10298,793.44283 479.16251,764.65962 452.80824,735.37359 C 433.56717,713.99205 379.61586,660.37359 377.34267,660.37359 C 374.95199,660.37359 337.76413,696.55554 314.53749,721.47994 C 284.60204,753.60352 251.42434,790.91897 229.46473,819.77709 C 213.25847,841.07447 212.61004,840.31529 227.14826,817.06497 C 258.93322,766.23276 307.23327,703.58389 348.54611,655.49852 C 354.39378,648.69223 359.18701,642.61723 359.19774,641.99852 C 359.22204,640.5977 337.38139,619.29018 319.84547,603.60684 C 265.75884,555.23419 187.5272,501.47983 133.22314,475.77667 C 125.95064,472.33445 120.78669,468.78498 121.40226,468.57979 C 124.57597,467.52188 197.99382,502.88893 223.67823,517.39283 C 272.46058,544.94006 330.50832,585.05705 367.73864,616.95348 C 372.50216,621.03454 376.74997,624.37359 377.17823,624.37359 C 377.60649,624.37359 381.8543,621.03454 386.61782,616.95348 C 423.94636,584.97291 481.76796,545.01167 530.66594,517.4 C 556.87533,502.6001 620.63759,472.91312 626.10314,472.94908 C 627.06285,472.95539 602.18453,485.38628 593.02556,490.26261 C 541.10759,517.9043 487.19116,556.45412 434.51099,603.59925 C 416.95739,619.30852 395.13444,640.60025 395.15872,641.99359 C 395.16945,642.6096 401.00244,649.91624 408.12092,658.23058 C 432.05978,686.19103 457.39351,718.6061 479.35296,749.37359 C 503.81543,783.64806 539.08542,835.14328 537.67197,836.55213 C 537.49391,836.72961 527.87607,826.18029 523.22899,820.0392 z M 142.07579,802.33108 C 141.96526,796.68792 161.29388,724.92969 171.81526,693.06404 C 175.95745,680.51879 179.08624,669.57624 178.76813,668.74726 C 177.51161,665.47284 141.94695,650.22709 116.17823,641.91643 C 97.3524,635.84492 75.95046,631.42303 76.48714,630.88635 C 77.31074,630.06275 113.62455,636.43176 129.67823,640.34514 C 147.00953,644.56996 162.95176,649.33119 175.85924,654.13731 C 183.42288,656.95365 184.15068,657.05864 185.5035,655.52856 C 186.30828,654.61833 191.96739,643.85889 198.07929,631.61869 C 210.86406,606.01486 236.24621,560.27973 241.28115,553.02859 C 245.45993,547.01047 239.95759,557.85321 230.04767,580.86859 C 222.62934,598.09733 197.93671,655.50338 196.63413,660.69326 C 196.13498,662.68204 197.05942,663.66261 203.36688,667.83479 C 222.58491,680.54689 270.53879,717.89004 280.635,728.59948 C 285.46622,733.72415 276.94165,727.58132 263.76101,718.10787 C 241.71425,702.26198 193.30522,673.19338 190.69396,675.36054 C 187.43114,678.06844 165.90563,731.17443 155.13016,763.10064 C 148.2782,783.40206 142.13621,805.41612 142.07579,802.33108 z M 612.47419,805.21859 C 612.1404,804.39359 603.09278,774.64859 599.29837,763.37359 C 588.53183,731.38111 566.95632,678.09417 563.6625,675.36054 C 561.04,673.18406 509.16109,705.46409 487.58709,721.07884 C 473.7465,731.09633 473.19357,731.14605 483.09672,721.48264 C 496.03916,708.85351 535.29521,677.98218 556.16897,664.27766 L 558.59978,662.68174 L 554.76828,652.27766 C 546.32455,629.34951 532.95964,597.27268 526.91784,583.66027 C 523.40415,575.74378 509.49762,550.78938 509.49762,550.41363 C 509.49762,549.20401 527.66753,576.27807 533.75693,587.06105 C 537.01365,592.82798 546.20323,611.67583 554.17823,627.3589 C 571.15614,660.74648 567.43854,658.13466 587.82848,651.00007 C 607.58754,644.08623 651.52328,633.0835 667.51823,631.03823 C 676.43987,629.89742 658.29298,634.64292 638.84323,640.84778 C 610.19242,649.98796 576.93577,665.23589 575.57824,668.77358 C 575.25457,669.61702 578.15491,679.88457 582.02343,691.59035 C 595.52719,732.45147 614.8413,802.05858 613.50854,805.58693 C 613.2396,806.29893 612.85603,806.16234 612.47419,805.21859 z M 258.74141,517.97359 C 276.35011,486.23821 319.64825,423.13667 363.04946,374.22014 C 365.32028,371.66074 367.17823,368.89618 367.17823,368.07666 C 367.17823,365.64099 341.98075,342.10506 324.2099,327.94172 C 305.29705,312.86821 272.10088,293.79198 254.74823,282.18675 C 248.01073,277.68079 222.65323,262.44935 222.65323,262.19909 C 222.65323,261.1857 258.26129,280.36826 271.70015,288.06785 C 295.13852,301.49651 341.61754,329.57014 364.34659,348.60283 C 370.76418,353.97675 376.53842,358.37359 377.17823,358.37359 C 377.81804,358.37359 383.79647,353.80273 390.46364,348.21612 C 415.55734,327.1894 456.96776,295.1818 483.35323,280.82322 C 492.55688,275.81474 526.03323,262.32103 526.03323,263.07675 C 526.03323,263.3351 497.39073,277.98935 490.10323,282.86739 C 474.35317,293.41 438.97607,320.512 423.43809,333.22944 C 409.51727,344.62328 387.17823,366.10031 387.17823,368.09013 C 387.17823,368.90224 389.03618,371.66074 391.307,374.22014 C 427.77483,415.32221 468.42067,469.60273 483.68469,499.25786 C 491.44621,514.33705 499.96513,526.05373 499.09098,526.05373 C 498.79343,526.05373 495.29108,521.44123 491.30796,515.80373 C 482.60092,503.48023 451.62682,456.15316 441.26576,443.90166 C 421.10641,420.06411 379.81199,377.37359 376.91334,377.37359 C 375.37308,377.37359 340.17247,413.15515 325.75761,429.37359 C 310.13192,446.95437 274.66344,498.27622 263.95104,513.47359 C 259.58956,519.66109 255.79046,524.72359 255.50859,524.72359 C 255.22672,524.72359 256.68149,521.68609 258.74141,517.97359 z"
       id="path2831"
       sodipodi:nodetypes="csssssscccsscccsssccscccsscccssssssssssccsssssssssssssssccssssssssssssssssssssssccssssssssssssssssccsssscccssssssssssccsssssssssssssssssssssssc" />
  </g>
</svg>
